<svg xmlns="http://www.w3.org/2000/svg" viewBox="0 0 400 400" width="800" height="800">  
  <defs>  
    <linearGradient id="gold" x1="0%" y1="0%" x2="100%" y2="100%">  
      <stop offset="0%" style="stop-color:#E6C27A" />  
      <stop offset="100%" style="stop-color:#C9A96E" />  
    </linearGradient>  
    <linearGradient id="navy" x1="0%" y1="0%" x2="100%" y2="100%">  
      <stop offset="0%" style="stop-color:#1A2A4A" />  
      <stop offset="100%" style="stop-color:#0F1A2E" />  
    </linearGradient>  
  </defs>    <!-- دائرة الخلفية -->    <circle cx="200" cy="200" r="180" fill="#F8F6F0" />    <!-- ===== حرف O = قلم ريشة ===== -->    <polygon points="280,60 120,300 150,320 310,80" fill="url(#gold)" />  
  <polygon points="120,300 90,340 130,315" fill="#B8860B" />  
  <path d="M 280,60 Q 330,20 370,60 Q 330,100 280,60" fill="url(#gold)" stroke="#A67B2E" stroke-width="3"/>  
  <path d="M 280,60 Q 310,40 330,60" stroke="#A67B2E" stroke-width="2" fill="none"/>    <!-- ===== حرف L = عمود روماني ===== -->    <rect x="40" y="320" width="110" height="25" rx="5" fill="url(#navy)" />  
  <rect x="40" y="40" width="110" height="25" rx="5" fill="url(#navy)" />  
  <rect x="65" y="65" width="60" height="255" rx="6" fill="url(#navy)" />  
  <line x1="85" y1="65" x2="85" y2="320" stroke="#2A406A" stroke-width="4" />  
  <line x1="105" y1="65" x2="105" y2="320" stroke="#2A406A" stroke-width="4" />  
</svg>